External Loads File
version=1
nRows=93
nColumns=13
Range=5.000000e-03-10 seconds
endheader
time 	forceRightX 	forceRightY 	forceRightZ 	pointRightX 	pointRightY 	pointRightZ 	forceLeftX 	forceLeftY 	forceLeftZ 	pointLeftX 	pointLeftY 	pointLeftZ 		
5.005000 161.002659 224.294861 -0.000000 0.117104 0.157215 -0.102820 -137.709055 -149.074056 -0.000000 0.245211 0.484432 -0.341404
5.010000 152.631467 193.993709 -0.000000 0.108758 0.160928 -0.102967 -129.733906 -132.350856 -0.000000 0.253414 0.481447 -0.341925
5.015000 142.418969 163.671329 -0.000000 0.100786 0.165411 -0.103023 -121.158806 -113.931641 -0.000000 0.261217 0.478197 -0.342461
5.020000 130.811334 134.143348 -0.000000 0.093238 0.170315 -0.103161 -113.240468 -94.319997 -0.000000 0.268500 0.474276 -0.343030
5.025000 118.546270 106.077024 -0.000000 0.085999 0.175843 -0.103286 -107.221402 -73.498998 -0.000000 0.275296 0.469308 -0.343936
5.030000 106.247864 80.188048 -0.000000 0.078930 0.182058 -0.103321 -103.923716 -51.242288 -0.000000 0.281803 0.463287 -0.344606
5.035000 94.228125 57.447088 -0.000000 0.072142 0.188656 -0.103350 -103.576089 -27.550168 -0.000000 0.287545 0.456840 -0.344984
5.040000 83.117765 38.121246 -0.000000 0.065654 0.195866 -0.103353 -106.265981 -1.912147 -0.000000 0.292815 0.449693 -0.345610
5.045000 73.241807 22.450739 -0.000000 0.059429 0.203519 -0.103265 -111.620490 25.967288 -0.000000 0.297500 0.441651 -0.346128
5.050000 64.767268 10.615423 -0.000000 0.053565 0.211546 -0.103277 -119.206129 56.034236 -0.000000 0.301466 0.433458 -0.346683
5.055000 57.815926 2.404632 -0.000000 0.048168 0.219864 -0.103255 -128.623436 88.406971 -0.000000 0.304625 0.424537 -0.347100
5.060000 52.351287 -2.497359 -0.000000 0.043137 0.228676 -0.103202 -139.628464 123.050626 -0.000000 0.307281 0.415355 -0.347500
5.065000 48.229030 -4.590892 -0.000000 0.038620 0.238017 -0.103228 -152.005539 159.967371 -0.000000 0.309534 0.405527 -0.347880
5.070000 45.253201 -4.394273 -0.000000 0.034570 0.247647 -0.103270 -165.749526 198.817410 -0.000000 0.311548 0.395269 -0.348064
5.075000 43.200955 -2.512543 -0.000000 0.030984 0.257645 -0.103254 -180.547255 239.286332 -0.000000 0.313374 0.384578 -0.348314
5.080000 41.848504 0.574584 -0.000000 0.027884 0.267825 -0.103299 -196.053725 280.751301 -0.000000 0.314959 0.373470 -0.348380
5.085000 41.018452 4.594946 -0.000000 0.025385 0.278205 -0.103324 -211.987750 322.299203 -0.000000 0.316482 0.362421 -0.348415
5.090000 40.675807 9.401527 -0.000000 0.023486 0.288852 -0.103400 -227.395518 363.310300 -0.000000 0.317796 0.351244 -0.348420
5.095000 40.986173 15.030119 -0.000000 0.022291 0.299527 -0.103449 -241.565697 402.915204 -0.000000 0.318706 0.339873 -0.349251
5.100000 42.286665 21.524035 -0.000000 0.021663 0.310270 -0.103596 -253.826372 440.245155 -0.000000 0.319048 0.328562 -0.348981
5.105000 44.970069 28.772833 -0.000000 0.021796 0.321144 -0.103679 -263.277660 474.688450 -0.000000 0.318867 0.317357 -0.348969
5.110000 49.243701 36.567080 -0.000000 0.022530 0.331866 -0.103766 -269.886415 505.374077 -0.000000 0.318108 0.306400 -0.348654
5.115000 55.144416 44.475778 -0.000000 0.023927 0.342666 -0.103806 -272.564199 532.309042 -0.000000 0.316901 0.295497 -0.348815
5.120000 62.384813 52.161720 -0.000000 0.025910 0.353303 -0.104031 -271.558379 555.126052 -0.000000 0.315193 0.284689 -0.348986
5.125000 70.498663 59.284615 -0.000000 0.028536 0.363646 -0.104087 -267.002127 573.869929 -0.000000 0.312761 0.274024 -0.348943
5.130000 78.943582 65.474094 -0.000000 0.031789 0.374039 -0.104141 -258.744731 588.936844 -0.000000 0.309939 0.263668 -0.348739
5.135000 87.072509 70.433840 -0.000000 0.035605 0.384145 -0.104192 -247.112415 600.594496 -0.000000 0.306545 0.253478 -0.348435
5.140000 94.228093 73.880230 -0.000000 0.040066 0.394032 -0.104306 -232.218586 609.226202 -0.000000 0.302611 0.243589 -0.348031
5.145000 99.781841 75.538092 -0.000000 0.045144 0.403796 -0.104227 -213.984333 615.247331 -0.000000 0.298141 0.233964 -0.347562
5.150000 103.087885 75.274920 -0.000000 0.051123 0.413205 -0.104433 -192.909337 618.838213 -0.000000 0.293145 0.224736 -0.347136
5.155000 103.580726 73.111241 -0.000000 0.057344 0.422385 -0.104590 -169.764834 620.155736 -0.000000 0.287672 0.215766 -0.346694
5.160000 100.902838 69.185766 -0.000000 0.063755 0.431396 -0.104888 -145.192432 619.437339 -0.000000 0.281667 0.207131 -0.346326
5.165000 95.018883 63.607636 -0.000000 0.071555 0.439852 -0.104435 -119.015710 617.029426 -0.000000 0.275277 0.198953 -0.345843
5.170000 85.941587 56.736664 -0.000000 0.079651 0.447881 -0.104573 -92.476801 612.848749 -0.000000 0.268349 0.191182 -0.345774
5.175000 73.873026 48.836848 -0.000000 0.087545 0.455582 -0.105221 -66.690619 606.843207 -0.000000 0.261109 0.183730 -0.345054
5.180000 59.352194 39.783313 -0.000000 0.096701 0.462728 -0.105372 -40.025778 599.147121 -0.000000 0.253252 0.176920 -0.344932
5.185000 42.714532 29.875060 -0.000000 0.106031 0.469031 -0.105812 -14.659243 589.397885 -0.000000 0.245128 0.170529 -0.344606
5.190000 24.602714 19.036923 -0.000000 0.115720 0.475138 -0.106086 10.084552 577.503900 -0.000000 0.236553 0.164768 -0.344664
5.195000 5.635609 7.263732 -0.000000 0.125792 0.480616 -0.106446 33.510550 563.337693 -0.000000 0.227738 0.159620 -0.344499
5.200000 -13.529380 -5.486171 -0.000000 0.136085 0.485388 -0.106754 55.679463 546.852805 -0.000000 0.218191 0.155542 -0.345391
5.205000 -32.235784 -19.185699 -0.000000 0.146435 0.489588 -0.107031 75.063045 528.307201 -0.000000 0.209357 0.151173 -0.344526
5.210000 -49.882892 -33.516179 -0.000000 0.156606 0.492995 -0.107218 92.663190 507.829467 -0.000000 0.199765 0.147934 -0.344471
5.215000 -65.942542 -47.879830 -0.000000 0.166841 0.495788 -0.107430 108.398893 485.668354 -0.000000 0.189972 0.145538 -0.344404
5.220000 -79.927567 -61.532095 -0.000000 0.176872 0.498044 -0.107681 122.048979 462.111440 -0.000000 0.179942 0.143671 -0.344454
5.225000 -91.404921 -73.688670 -0.000000 0.186892 0.499674 -0.108043 133.464211 437.398609 -0.000000 0.169998 0.142514 -0.344388
5.230000 -100.005190 -83.666111 -0.000000 0.196579 0.500781 -0.108312 142.365993 411.763584 -0.000000 0.160082 0.142203 -0.344206
5.235000 -105.621092 -90.779084 -0.000000 0.206238 0.500714 -0.108374 149.076621 385.201661 -0.000000 0.150326 0.142547 -0.344000
5.240000 -108.231508 -94.600588 -0.000000 0.215745 0.500337 -0.108510 153.457988 357.827782 -0.000000 0.140718 0.143474 -0.343802
5.245000 -108.006991 -94.829430 -0.000000 0.224998 0.499144 -0.108456 155.521201 329.734046 -0.000000 0.131282 0.145079 -0.343542
5.250000 -105.286918 -91.357558 -0.000000 0.233816 0.497207 -0.108391 155.274440 301.125726 -0.000000 0.122024 0.147478 -0.343305
5.255000 -100.535448 -84.382644 -0.000000 0.242144 0.494743 -0.108172 152.586613 272.480497 -0.000000 0.113265 0.150520 -0.342964
5.260000 -94.588449 -74.112884 -0.000000 0.249889 0.491621 -0.108059 147.968951 244.142979 -0.000000 0.104755 0.154242 -0.342727
5.265000 -88.389566 -60.912921 -0.000000 0.257175 0.487867 -0.107828 141.828412 216.668222 -0.000000 0.096567 0.158540 -0.342500
5.270000 -82.941114 -45.066432 -0.000000 0.263958 0.483257 -0.107513 134.762336 190.607904 -0.000000 0.088647 0.163524 -0.342369
5.275000 -79.051784 -26.822849 -0.000000 0.270228 0.477961 -0.107077 127.252337 166.616529 -0.000000 0.081026 0.168989 -0.342063
5.280000 -77.301334 -6.220200 -0.000000 0.276099 0.471546 -0.106449 120.030114 145.086894 -0.000000 0.073760 0.175063 -0.341956
5.285000 -77.901075 16.602481 -0.000000 0.281300 0.464587 -0.105916 113.454639 126.534426 -0.000000 0.066720 0.181734 -0.341753
5.290000 -80.833835 41.611222 -0.000000 0.286012 0.456889 -0.105503 107.993621 111.169121 -0.000000 0.060023 0.188860 -0.341663
5.295000 -86.000358 68.682950 -0.000000 0.290293 0.448949 -0.104856 103.878209 99.152625 -0.000000 0.053685 0.196413 -0.341617
5.300000 -93.220047 97.827003 -0.000000 0.294070 0.440354 -0.104717 101.420468 90.290521 -0.000000 0.047755 0.204401 -0.341492
5.305000 -102.300769 128.991263 -0.000000 0.297325 0.430981 -0.104323 100.774971 84.258634 -0.000000 0.042230 0.212734 -0.341485
5.310000 -112.877311 162.132169 -0.000000 0.300470 0.421195 -0.104214 102.064879 80.473592 -0.000000 0.037148 0.221673 -0.341455
5.315000 -124.703900 196.887213 -0.000000 0.303252 0.410787 -0.103997 105.151057 78.394489 -0.000000 0.032495 0.230791 -0.341428
5.320000 -137.226541 232.825673 -0.000000 0.305703 0.400160 -0.103726 109.832883 77.346302 -0.000000 0.028289 0.240500 -0.341378
5.325000 -149.499947 269.485039 -0.000000 0.308102 0.388769 -0.103657 115.804112 76.660716 -0.000000 0.024678 0.250448 -0.341410
5.330000 -161.727409 305.666854 -0.000000 0.310102 0.377641 -0.103449 122.301381 76.356914 -0.000000 0.021675 0.260607 -0.341355
5.335000 -173.022170 340.872196 -0.000000 0.311995 0.366496 -0.103610 128.879419 76.124530 -0.000000 0.019388 0.270973 -0.341361
5.340000 -182.593091 374.673274 -0.000000 0.313402 0.355177 -0.103578 135.080688 75.853687 -0.000000 0.017689 0.281595 -0.341372
5.345000 -190.430374 406.380461 -0.000000 0.314630 0.343900 -0.103738 140.395182 75.801887 -0.000000 0.016752 0.292108 -0.341474
5.350000 -195.478240 435.862466 -0.000000 0.315015 0.332600 -0.103677 144.666513 75.890896 -0.000000 0.016497 0.302872 -0.341508
5.355000 -197.548697 462.638678 -0.000000 0.314870 0.321183 -0.103583 147.728714 76.318201 -0.000000 0.016997 0.313451 -0.341659
5.360000 -196.800582 486.302036 -0.000000 0.314149 0.310131 -0.103399 149.543186 77.228763 -0.000000 0.018198 0.324032 -0.341742
5.365000 -192.534376 507.095227 -0.000000 0.312986 0.298993 -0.103125 150.354889 78.264562 -0.000000 0.020114 0.334562 -0.341819
5.370000 -185.722733 524.847629 -0.000000 0.311446 0.288019 -0.102914 150.207116 79.346563 -0.000000 0.022740 0.344836 -0.341963
5.375000 -176.530062 539.865137 -0.000000 0.309333 0.277348 -0.103668 149.232294 79.978586 -0.000000 0.025976 0.355034 -0.342180
5.380000 -164.757142 552.563313 -0.000000 0.306584 0.266900 -0.103270 147.491488 79.534104 -0.000000 0.030135 0.365098 -0.342077
5.385000 -151.291082 562.978226 -0.000000 0.303351 0.256829 -0.103292 144.760117 77.774294 -0.000000 0.034887 0.374893 -0.342220
5.390000 -135.191696 571.651699 -0.000000 0.299490 0.246897 -0.103545 141.019473 74.112592 -0.000000 0.040322 0.384630 -0.342588
5.395000 -117.487853 578.567606 -0.000000 0.295116 0.237236 -0.103821 135.998074 68.576720 -0.000000 0.046253 0.394111 -0.342371
5.400000 -98.583455 583.856831 -0.000000 0.290257 0.227892 -0.103937 129.559919 61.101231 -0.000000 0.052924 0.403040 -0.342113
5.405000 -78.035021 587.670702 -0.000000 0.284897 0.218969 -0.103972 121.666247 51.511970 -0.000000 0.060182 0.411899 -0.342204
5.410000 -55.600620 589.903312 -0.000000 0.279022 0.210386 -0.104077 112.208127 39.785791 -0.000000 0.068552 0.420266 -0.343199
5.415000 -33.110062 590.120890 -0.000000 0.272465 0.202334 -0.103897 100.926433 26.346910 -0.000000 0.076858 0.428183 -0.343381
5.420000 -10.966393 588.048161 -0.000000 0.265811 0.194675 -0.104210 87.726504 11.306765 -0.000000 0.085430 0.435747 -0.343395
5.425000 10.671120 583.360149 -0.000000 0.258460 0.187591 -0.103852 72.528590 -5.273504 -0.000000 0.093956 0.442790 -0.342698
5.430000 32.612694 575.673329 -0.000000 0.250755 0.181079 -0.103866 55.212208 -23.427082 -0.000000 0.103322 0.449374 -0.342649
5.435000 53.907636 564.739917 -0.000000 0.242751 0.174950 -0.103787 35.689880 -42.912045 -0.000000 0.113207 0.455291 -0.342457
5.440000 74.133468 550.575295 -0.000000 0.234320 0.169498 -0.103744 14.068004 -63.469265 -0.000000 0.123330 0.460855 -0.342747
5.445000 92.972093 533.441555 -0.000000 0.225571 0.164730 -0.103653 -9.246201 -84.690489 -0.000000 0.133750 0.465843 -0.342680
5.450000 110.318219 513.752351 -0.000000 0.216532 0.160500 -0.103499 -33.569481 -106.001985 -0.000000 0.144233 0.470411 -0.342837
5.455000 125.776906 492.079675 -0.000000 0.207100 0.156890 -0.103350 -57.927331 -126.692385 -0.000000 0.154408 0.474582 -0.342680
5.460000 139.163383 468.974195 -0.000000 0.197487 0.153968 -0.103239 -81.225119 -145.907710 -0.000000 0.164297 0.478320 -0.342435
5.465000 151.366984 444.542209 -0.000000 0.187634 0.151732 -0.103138 -102.751373 -162.438301 -0.000000 0.174443 0.481472 -0.342315
